<?xml version="1.0" encoding="utf-8"?>
<!-- Generator: Adobe Illustrator 13.0.0, SVG Export Plug-In . SVG Version: 6.00 Build 14948)  -->
<!DOCTYPE svg PUBLIC "-//W3C//DTD SVG 1.1//EN" "http://www.w3.org/Graphics/SVG/1.1/DTD/svg11.dtd">
<svg version="1.1" id="Layer_8" xmlns="http://www.w3.org/2000/svg" xmlns:xlink="http://www.w3.org/1999/xlink" x="0px" y="0px"
	 width="800px" height="600px" viewBox="0 0 800 600" style="enable-background:new 0 0 800 600;" xml:space="preserve">
<style type="text/css">
<![CDATA[
	.st0{fill:#ACBDBD;}
	.st1{fill:none;}
	.st2{fill:#72B0AE;}
]]>
</style>
<g>
	<polygon class="st1" points="265.667,393.501 264.556,390.834 58.162,390.834 59,399.501 0,399.501 0,404.5 324.667,404.5 
		324.667,393.501 	"/>
	<polygon class="st1" points="92.667,5 198.333,2.168 198.333,5.501 324.667,5.501 324.667,0.5 0,0.5 0,5.501 92.821,5.501 	"/>
	<polygon class="st0" points="198.333,8.835 207,13.501 208.333,23.501 207,30.835 217.667,32.168 222.333,37.501 223,54.835 
		233.667,64.168 247.667,66.835 260.333,86.835 257,106.168 266.333,109.501 270.333,104.835 277,108.834 293.667,114.834 
		302.334,112.168 310.334,108.834 323.667,108.834 324.667,108.834 324.667,5.501 198.333,5.501 	"/>
	<polygon class="st0" points="19,273.501 25.667,297.501 31.667,288.168 44.333,282.168 63.667,284.5 79.167,286.5 92.667,278 
		108.167,278 114.667,266.5 122.167,263.5 118.667,250.5 113.167,231.5 113.167,222.5 112.667,216 100.667,202.5 86.167,191 
		71.167,182.5 59.667,172 43.167,159.5 39.167,150 37.667,139 43.667,144 56.667,154.5 80.167,174.5 83.167,171 73.667,154 
		72.167,140 94.167,137.5 104.167,147.5 123.167,157.5 150.167,185 167.667,176 167.667,169.5 172.167,167.5 177.667,163.5 
		166.667,150 160.667,141.5 147.667,138 115.667,120.5 117.167,110.5 113.667,98 101.667,87 83.167,81 70.667,65.5 67.167,36.5 
		94.167,50 105.167,45.5 92.821,5.501 0,5.501 0,264.301 13,269.501 	"/>
	<polygon class="st0" points="262.333,375.501 261.667,364.834 259.667,355.501 257,346.168 251.667,335.501 240.333,325.501 
		235,319.501 228.333,314.834 213,312.834 195,317.501 182.334,319.501 165.667,316.834 150.334,322.168 134.334,322.834 
		128.334,318.168 119.667,313.501 113,320.834 99,356.834 81,359.501 63.667,361.501 55.667,364.834 53,372.834 57,378.834 
		58.162,390.834 264.556,390.834 262.333,385.501 	"/>
	<polygon class="st2" points="58.162,390.834 57,378.834 53,372.834 55.667,364.834 63.667,361.501 81,359.501 99,356.834 
		113,320.834 119.667,313.501 128.334,318.168 134.334,322.834 150.334,322.168 165.667,316.834 182.334,319.501 195,317.501 
		213,312.834 228.333,314.834 235,319.501 240.333,325.501 251.667,335.501 257,346.168 259.667,355.501 261.667,364.834 
		262.333,375.501 262.333,385.501 264.556,390.834 265.667,393.501 324.667,393.501 324.667,108.834 323.667,108.834 
		310.334,108.834 302.334,112.168 293.667,114.834 277,108.834 270.333,104.835 266.333,109.501 257,106.168 260.333,86.835 
		247.667,66.835 233.667,64.168 223,54.835 222.333,37.501 217.667,32.168 207,30.835 208.333,23.501 207,13.501 198.333,8.835 
		198.333,5.501 198.333,2.168 92.667,5 92.821,5.501 105.167,45.5 94.167,50 67.167,36.5 70.667,65.5 83.167,81 101.667,87 
		113.667,98 117.167,110.5 115.667,120.5 147.667,138 160.667,141.5 166.667,150 177.667,163.5 172.167,167.5 167.667,169.5 
		167.667,176 150.167,185 123.167,157.5 104.167,147.5 94.167,137.5 72.167,140 73.667,154 83.167,171 80.167,174.5 56.667,154.5 
		43.667,144 37.667,139 39.167,150 43.167,159.5 59.667,172 71.167,182.5 86.167,191 100.667,202.5 112.667,216 113.167,222.5 
		113.167,231.5 118.667,250.5 122.167,263.5 114.667,266.5 108.167,278 92.667,278 79.167,286.5 63.667,284.5 44.333,282.168 
		31.667,288.168 25.667,297.501 19,273.501 13,269.501 0,264.301 0,399.501 59,399.501 	"/>
</g>
</svg>
